<svg width="24" height="24" viewBox="0 0 24 24" fill="none" xmlns="http://www.w3.org/2000/svg">
<path d="M11.0019 4C7.00194 4 5.5 4.4915 5.5 5.71536C5.5 6.5 6.50193 6.5 6.50193 6.5H17.5019C17.5019 6.5 18.5038 6.5 18.5038 5.71536C18.5038 4.4915 17.0019 4 13.0019 4C13.0019 3.32846 14.0019 3.3 14.0019 2.5C14.0019 1.80384 13.0019 1.5 12.0019 1.5C11.0019 1.5 10.0019 1.80384 10.0019 2.5C10.0019 3.3 11.0019 3.32846 11.0019 4Z" stroke="black" stroke-width="1.5" stroke-linejoin="round"/>
<path d="M4 9.14107C4 8.48873 5 8.50001 5 8.50001H12.5C12.8333 8.83336 13.5 9.90002 13.5 11.5C13.5 13.5 12.5 13.7445 12.5 15C12.5 15.7684 12.8341 17 14.5 17C16.1659 17 16.5 15.7684 16.5 15C16.5 13.7445 15.5 13.5 15.5 11.5C15.5 9.90002 16.1667 8.83336 16.5 8.50001H19C19 8.50001 20 8.48873 20 9.14107C20 9.79341 18.5 10 18.5 10.5C18.5 11 20.5 11.8413 20.5 13.3432C20.5 13.9646 19.6956 17.1369 19.0239 20.1516C18.7182 21.5241 17.4996 22.5 16.0935 22.5H7.90651C6.50042 22.5 5.28182 21.5241 4.97606 20.1516C4.30445 17.1369 3.5 13.9646 3.5 13.3432C3.5 11.8413 5.5 11 5.5 10.5C5.5 10 4 9.79341 4 9.14107Z" stroke="black" stroke-width="1.5" stroke-linejoin="round"/>
</svg>
