<svg width="166" height="27" viewBox="0 0 166 27" fill="none" xmlns="http://www.w3.org/2000/svg">
<path d="M23.7888 10.1878C23.7888 5.29204 19.7559 1.32324 14.7811 1.32324C9.80631 1.32324 5.77344 5.29204 5.77344 10.1878" stroke="#B9EB8E" stroke-width="2.64602" stroke-linecap="round"/>
<path d="M25.5713 16.4418L25.9999 13.0676C26.1703 11.7255 26.2556 11.0545 25.8737 10.621C25.4918 10.1875 24.8153 10.1875 23.4624 10.1875H6.10638C4.75349 10.1875 4.07704 10.1875 3.69514 10.621C3.31324 11.0545 3.39848 11.7255 3.56895 13.0676L3.99753 16.4418C4.53843 20.7003 4.80889 22.8295 6.25857 24.1067C7.70825 25.3839 9.85459 25.3839 14.1473 25.3839H14.1473H15.4216H15.4216C19.7142 25.3839 21.8606 25.3839 23.3102 24.1067C24.7599 22.8295 25.0304 20.7003 25.5713 16.4418Z" fill="white" stroke="white" stroke-width="1.91836" stroke-linecap="round"/>
<path d="M1.88281 9.74609H27.619" stroke="white" stroke-width="2.64602" stroke-linecap="round"/>
<path d="M37.4437 20.73H41.1237V15.23H45.7837V20.73H49.4637V6.72998H45.7837V12.11H41.1237V6.72998H37.4437V20.73ZM52.3625 14.65C52.3625 18.63 54.4225 20.85 58.3425 20.85C62.2625 20.85 64.3225 18.63 64.3225 14.65V6.72998H60.6425V14.85C60.6425 16.71 60.0025 17.75 58.3425 17.75C56.6825 17.75 56.0425 16.71 56.0425 14.85V6.72998H52.3625V14.65ZM73.3473 20.85C75.1273 20.85 76.4073 20.21 77.1873 19.25L77.5873 20.73H80.0273V12.85H73.5473V15.65H76.6473V15.67C76.2073 17.35 74.7473 17.81 73.6673 17.81C71.5273 17.81 70.4073 16.13 70.4073 13.73C70.4073 11.33 71.6073 9.64998 73.6273 9.64998C75.1273 9.64998 76.0673 10.61 76.3473 11.95H79.9673C79.6873 8.82998 77.2673 6.60998 73.7273 6.60998C69.3073 6.60998 66.6473 9.40998 66.6473 13.73C66.6473 18.05 69.3073 20.85 73.3473 20.85ZM83.0273 20.73H92.9073V17.61H86.7073V15.17H91.4873V12.25H86.7073V9.84998H92.6873V6.72998H83.0273V20.73ZM102.554 9.64998C103.654 9.64998 104.494 8.84998 104.494 7.76998C104.494 6.68998 103.654 5.88998 102.554 5.88998C101.454 5.88998 100.614 6.68998 100.614 7.76998C100.614 8.84998 101.454 9.64998 102.554 9.64998ZM100.814 20.73H104.294V10.41H100.814V20.73ZM113.267 20.85C116.827 20.85 119.307 18.63 119.567 15.51H115.887C115.627 16.85 114.707 17.81 113.267 17.81C111.347 17.81 110.267 16.13 110.267 13.73C110.267 11.33 111.347 9.64998 113.267 9.64998C114.707 9.64998 115.627 10.61 115.887 11.95H119.567C119.307 8.82998 116.907 6.60998 113.467 6.60998C109.127 6.60998 106.507 9.40998 106.507 13.73C106.507 18.05 109.047 20.85 113.267 20.85ZM141.448 20.73V12.99L146.548 20.73H149.888V6.72998H146.268V14.47L141.168 6.72998H137.828V20.73H141.448ZM152.326 16.11C152.326 19.01 154.666 20.85 158.286 20.85C161.746 20.85 163.986 18.99 164.006 16.27C164.026 13.39 162.026 12.69 159.566 12.21C157.126 11.73 156.346 11.55 156.346 10.71C156.346 9.84998 157.106 9.44998 158.106 9.44998C159.346 9.44998 160.026 10.15 160.106 11.09H163.686C163.686 8.32998 161.506 6.60998 158.106 6.60998C154.766 6.60998 152.646 8.44998 152.646 10.99C152.646 13.91 154.586 14.65 157.006 15.15C159.466 15.65 160.306 15.83 160.306 16.69C160.306 17.59 159.466 18.03 158.346 18.03C156.846 18.03 155.986 17.25 155.906 16.19L152.326 16.11Z" fill="white"/>
<path d="M135.413 13.73C135.413 9.66998 132.553 6.60998 128.333 6.60998C124.113 6.60998 121.253 9.66998 121.253 13.73C121.253 17.79 124.113 20.85 128.333 20.85C132.553 20.85 135.413 17.79 135.413 13.73ZM125.013 13.73C125.013 11.39 126.293 9.64998 128.333 9.64998C130.373 9.64998 131.653 11.39 131.653 13.73C131.653 16.07 130.373 17.81 128.333 17.81C126.293 17.81 125.013 16.07 125.013 13.73Z" fill="#0F1607"/>
<ellipse cx="128.918" cy="13.3038" rx="4.57375" ry="4.57382" stroke="#B9EB8E" stroke-width="3.5" stroke-miterlimit="4.80973" stroke-linecap="round" stroke-dasharray="0.21 3.33"/>
</svg>
