<svg width="166" height="28" viewBox="0 0 166 28" fill="none" xmlns="http://www.w3.org/2000/svg">
<path d="M23.7888 10.8576C23.7888 5.9618 19.7559 1.993 14.7811 1.993C9.80631 1.993 5.77344 5.9618 5.77344 10.8576" stroke="#B9EB8E" stroke-width="2.64602" stroke-linecap="round"/>
<path d="M25.5713 17.1118L25.9999 13.7376C26.1703 12.3955 26.2556 11.7245 25.8737 11.291C25.4918 10.8575 24.8153 10.8575 23.4624 10.8575H6.10638C4.75349 10.8575 4.07704 10.8575 3.69514 11.291C3.31324 11.7245 3.39848 12.3955 3.56895 13.7376L3.99753 17.1118C4.53843 21.3703 4.80889 23.4995 6.25857 24.7767C7.70825 26.0539 9.85459 26.0539 14.1473 26.0539H14.1473H15.4216H15.4216C19.7142 26.0539 21.8606 26.0539 23.3102 24.7767C24.7599 23.4995 25.0304 21.3703 25.5713 17.1118Z" fill="#1A3925" stroke="#1A3925" stroke-width="1.91836" stroke-linecap="round"/>
<path d="M1.87891 10.4165H27.6151" stroke="#1A3925" stroke-width="2.64602" stroke-linecap="round"/>
<path d="M37.4437 21.4H41.1237V15.9H45.7837V21.4H49.4637V7.39999H45.7837V12.78H41.1237V7.39999H37.4437V21.4ZM52.3625 15.32C52.3625 19.3 54.4225 21.52 58.3425 21.52C62.2625 21.52 64.3225 19.3 64.3225 15.32V7.39999H60.6425V15.52C60.6425 17.38 60.0025 18.42 58.3425 18.42C56.6825 18.42 56.0425 17.38 56.0425 15.52V7.39999H52.3625V15.32ZM73.3473 21.52C75.1273 21.52 76.4073 20.88 77.1873 19.92L77.5873 21.4H80.0273V13.52H73.5473V16.32H76.6473V16.34C76.2073 18.02 74.7473 18.48 73.6673 18.48C71.5273 18.48 70.4073 16.8 70.4073 14.4C70.4073 12 71.6073 10.32 73.6273 10.32C75.1273 10.32 76.0673 11.28 76.3473 12.62H79.9673C79.6873 9.49999 77.2673 7.27999 73.7273 7.27999C69.3073 7.27999 66.6473 10.08 66.6473 14.4C66.6473 18.72 69.3073 21.52 73.3473 21.52ZM83.0273 21.4H92.9073V18.28H86.7073V15.84H91.4873V12.92H86.7073V10.52H92.6873V7.39999H83.0273V21.4ZM102.554 10.32C103.654 10.32 104.494 9.51999 104.494 8.44C104.494 7.35999 103.654 6.55999 102.554 6.55999C101.454 6.55999 100.614 7.35999 100.614 8.44C100.614 9.51999 101.454 10.32 102.554 10.32ZM100.814 21.4H104.294V11.08H100.814V21.4ZM113.267 21.52C116.827 21.52 119.307 19.3 119.567 16.18H115.887C115.627 17.52 114.707 18.48 113.267 18.48C111.347 18.48 110.267 16.8 110.267 14.4C110.267 12 111.347 10.32 113.267 10.32C114.707 10.32 115.627 11.28 115.887 12.62H119.567C119.307 9.49999 116.907 7.27999 113.467 7.27999C109.127 7.27999 106.507 10.08 106.507 14.4C106.507 18.72 109.047 21.52 113.267 21.52ZM141.448 21.4V13.66L146.548 21.4H149.888V7.39999H146.268V15.14L141.168 7.39999H137.828V21.4H141.448ZM152.326 16.78C152.326 19.68 154.666 21.52 158.286 21.52C161.746 21.52 163.986 19.66 164.006 16.94C164.026 14.06 162.026 13.36 159.566 12.88C157.126 12.4 156.346 12.22 156.346 11.38C156.346 10.52 157.106 10.12 158.106 10.12C159.346 10.12 160.026 10.82 160.106 11.76H163.686C163.686 8.99999 161.506 7.27999 158.106 7.27999C154.766 7.27999 152.646 9.11999 152.646 11.66C152.646 14.58 154.586 15.32 157.006 15.82C159.466 16.32 160.306 16.5 160.306 17.36C160.306 18.26 159.466 18.7 158.346 18.7C156.846 18.7 155.986 17.92 155.906 16.86L152.326 16.78Z" fill="#1A3925"/>
<path d="M135.413 14.4C135.413 10.34 132.553 7.27999 128.333 7.27999C124.113 7.27999 121.253 10.34 121.253 14.4C121.253 18.46 124.113 21.52 128.333 21.52C132.553 21.52 135.413 18.46 135.413 14.4ZM125.013 14.4C125.013 12.06 126.293 10.32 128.333 10.32C130.373 10.32 131.653 12.06 131.653 14.4C131.653 16.74 130.373 18.48 128.333 18.48C126.293 18.48 125.013 16.74 125.013 14.4Z" fill="white"/>
<ellipse cx="128.918" cy="13.9738" rx="4.57375" ry="4.57382" stroke="#B9EB8E" stroke-width="3.5" stroke-miterlimit="4.80973" stroke-linecap="round" stroke-dasharray="0.21 3.33"/>
</svg>
