<svg width="48" height="48" viewBox="0 0 48 48" fill="none" xmlns="http://www.w3.org/2000/svg">
<path d="M24 4C15.1634 4 8 11.0908 8 19.8377C8 22.8235 8.8347 25.6163 10.2857 28L17.1429 38H30.8571L37.7143 28C39.1653 25.6163 40 22.8235 40 19.8377C40 11.0908 32.8366 4 24 4Z" fill="#D4D7E0"/>
<path d="M29.7414 39.2932L29.7608 39.1961C29.8715 38.6427 29.9268 38.366 29.7768 38.183C29.6267 38 29.3446 38 28.7802 38H19.2198C18.6554 38 18.3733 38 18.2232 38.183C18.0732 38.366 18.1285 38.6427 18.2392 39.1961L18.2586 39.2932C18.5415 40.7073 18.6829 41.4144 18.9997 41.9731C19.4897 42.8371 20.2835 43.4879 21.2268 43.7989C21.8368 44 22.5579 44 24 44C25.4421 44 26.1632 44 26.7732 43.7989C27.7165 43.4879 28.5103 42.8371 29.0003 41.9731C29.3171 41.4144 29.4585 40.7073 29.7414 39.2932Z" fill="#D4D7E0"/>
<path d="M14.7657 34.1965C14.582 33.6432 14.4901 33.3666 14.5008 33.1425C14.5235 32.6686 14.8223 32.2525 15.2631 32.0811C15.4716 32 15.7621 32 16.3431 32H31.6569C32.2379 32 32.5284 32 32.7369 32.0811C33.1777 32.2525 33.4765 32.6686 33.4992 33.1425C33.5099 33.3666 33.418 33.6432 33.2343 34.1965C32.8947 35.2189 32.7249 35.7301 32.463 36.1441C31.9144 37.0113 31.0543 37.6334 30.0611 37.8816C29.587 38 29.0501 38 27.9763 38H20.0237C18.9499 38 18.413 38 17.9389 37.8816C16.9457 37.6334 16.0856 37.0113 15.537 36.1441C15.2751 35.7301 15.1053 35.2189 14.7657 34.1965Z" fill="white"/>
<path d="M10.2857 28C8.8347 25.6163 8 22.8235 8 19.8377C8 11.0908 15.1634 4 24 4C32.8366 4 40 11.0908 40 19.8377C40 22.8235 39.1653 25.6163 37.7143 28" stroke="#141B34" stroke-width="1.5" stroke-linecap="round"/>
<path d="M14.7657 34.1965C14.582 33.6432 14.4901 33.3666 14.5008 33.1425C14.5235 32.6686 14.8223 32.2525 15.2631 32.0811C15.4716 32 15.7621 32 16.3431 32H31.6569C32.2379 32 32.5284 32 32.7369 32.0811C33.1777 32.2525 33.4765 32.6686 33.4992 33.1425C33.5099 33.3666 33.418 33.6432 33.2343 34.1965C32.8947 35.2189 32.7249 35.7301 32.463 36.1441C31.9144 37.0113 31.0543 37.6334 30.0611 37.8816C29.587 38 29.0501 38 27.9763 38H20.0237C18.9499 38 18.413 38 17.9389 37.8816C16.9457 37.6334 16.0856 37.0113 15.537 36.1441C15.2751 35.7301 15.1053 35.2189 14.7657 34.1965Z" stroke="#141B34" stroke-width="1.5"/>
<path d="M30 38L29.7414 39.2932C29.4585 40.7073 29.3171 41.4144 29.0003 41.9731C28.5103 42.8371 27.7165 43.4879 26.7732 43.7989C26.1632 44 25.4421 44 24 44C22.5579 44 21.8368 44 21.2268 43.7989C20.2835 43.4879 19.4897 42.8371 18.9997 41.9731C18.6829 41.4144 18.5415 40.7073 18.2586 39.2932L18 38" stroke="#141B34" stroke-width="1.5"/>
<path d="M25.1043 13L22.061 16.3892C21.6428 16.8549 21.8973 17.5988 22.5131 17.7107L25.4906 18.2521C26.1463 18.3713 26.3773 19.1932 25.8796 19.6365L22.1043 23" stroke="#141B34" stroke-width="1.5" stroke-linecap="round" stroke-linejoin="round"/>
</svg>
