<svg width="16" height="26" viewBox="0 0 16 26" fill="none" xmlns="http://www.w3.org/2000/svg">
<g clip-path="url(#clip0_1_260)">
<path d="M4 26C6.208 26 8 24.0587 8 21.6667V17.3333H4C1.792 17.3333 0 19.2747 0 21.6667C0 24.0587 1.792 26 4 26Z" fill="#0ACF83"/>
<path d="M0 13C0 10.608 1.792 8.66667 4 8.66667H8V17.3333H4C1.792 17.3333 0 15.392 0 13Z" fill="#A259FF"/>
<path d="M0 4.33333C0 1.94133 1.792 0 4 0H8V8.66667H4C1.792 8.66667 0 6.72533 0 4.33333Z" fill="#F24E1E"/>
<path d="M8 0H12C14.208 0 16 1.94133 16 4.33333C16 6.72533 14.208 8.66667 12 8.66667H8V0Z" fill="#FF7262"/>
<path d="M16 13C16 15.392 14.208 17.3333 12 17.3333C9.792 17.3333 8 15.392 8 13C8 10.608 9.792 8.66667 12 8.66667C14.208 8.66667 16 10.608 16 13Z" fill="#1ABCFE"/>
</g>
<defs>
<clipPath id="clip0_1_260">
<rect width="16" height="26" fill="white"/>
</clipPath>
</defs>
</svg>
