<svg width="35" height="34" viewBox="0 0 35 34" fill="none" xmlns="http://www.w3.org/2000/svg">
<path d="M8.57342 14.8297C8.23636 14.4941 7.80694 14.2656 7.33946 14.173C6.87197 14.0805 6.38742 14.128 5.94708 14.3097C5.50673 14.4913 5.13037 14.7989 4.86557 15.1936C4.60078 15.5882 4.45944 16.0522 4.45944 16.5268C4.45944 17.0015 4.60078 17.4655 4.86557 17.8601C5.13037 18.2548 5.50673 18.5624 5.94708 18.744C6.38742 18.9257 6.87197 18.9732 7.33946 18.8807C7.80694 18.7881 8.23636 18.5596 8.57342 18.224L26.6669 18.224C27.004 18.5596 27.4334 18.7881 27.9009 18.8807C28.3683 18.9732 28.8529 18.9257 29.2932 18.744C29.7336 18.5624 30.1099 18.2548 30.3747 17.8601C30.6395 17.4655 30.7809 17.0015 30.7809 16.5268C30.7809 16.0522 30.6395 15.5882 30.3747 15.1936C30.1099 14.7989 29.7336 14.4913 29.2932 14.3097C28.8529 14.128 28.3683 14.0805 27.9009 14.173C27.4334 14.2656 27.004 14.4941 26.6669 14.8297L8.57342 14.8297Z" fill="#22262C" stroke="#22262C" stroke-width="4.18903"/>
<path d="M12.4279 8.95653C12.4279 8.48206 12.2866 8.01824 12.022 7.62367C11.7574 7.22911 11.3813 6.9215 10.9411 6.73974C10.501 6.55797 10.0167 6.51019 9.54931 6.60244C9.08193 6.69469 8.65251 6.92283 8.31529 7.25803C7.97807 7.59323 7.7482 8.02044 7.65472 8.48569C7.56124 8.95094 7.60835 9.43334 7.79009 9.87194C7.97183 10.3105 8.28005 10.6856 8.6758 10.9499C9.07155 11.2141 9.53707 11.3556 10.0135 11.3564L22.8111 24.096C22.8111 24.5705 22.9523 25.0343 23.2169 25.4289C23.4816 25.8234 23.8577 26.131 24.2978 26.3128C24.7379 26.4946 25.2223 26.5423 25.6897 26.4501C26.157 26.3578 26.5865 26.1297 26.9237 25.7945C27.2609 25.4593 27.4908 25.0321 27.5842 24.5668C27.6777 24.1016 27.6306 23.6192 27.4489 23.1806C27.2671 22.742 26.9589 22.3669 26.5632 22.1027C26.1674 21.8384 25.7019 21.697 25.2254 21.6961L12.4279 8.95653Z" fill="#22262C" stroke="#22262C" stroke-width="4.18903"/>
<path d="M19.3259 7.51665C19.6629 7.181 19.8924 6.75338 19.9854 6.28786C20.0783 5.82234 20.0306 5.33982 19.8481 4.90132C19.6657 4.46282 19.3568 4.08803 18.9605 3.82435C18.5642 3.56066 18.0983 3.41992 17.6216 3.41992C17.145 3.41992 16.6791 3.56066 16.2828 3.82435C15.8864 4.08803 15.5776 4.46282 15.3951 4.90132C15.2127 5.33982 15.165 5.82234 15.2579 6.28786C15.3509 6.75338 15.5804 7.181 15.9174 7.51665V25.5343C15.5804 25.8699 15.3509 26.2975 15.2579 26.7631C15.165 27.2286 15.2127 27.7111 15.3951 28.1496C15.5776 28.5881 15.8864 28.9629 16.2828 29.2266C16.6791 29.4903 17.145 29.631 17.6216 29.631C18.0983 29.631 18.5642 29.4903 18.9605 29.2266C19.3568 28.9629 19.6657 28.5881 19.8481 28.1496C20.0306 27.7111 20.0783 27.2286 19.9854 26.7631C19.8924 26.2975 19.6629 25.8699 19.3259 25.5343V7.51665Z" fill="#22262C" stroke="#22262C" stroke-width="4.18903"/>
<path d="M25.2278 11.3564C25.7043 11.3556 26.1698 11.2141 26.5656 10.9499C26.9613 10.6856 27.2695 10.3105 27.4513 9.87194C27.633 9.43334 27.6801 8.95094 27.5866 8.48569C27.4932 8.02044 27.2633 7.59323 26.9261 7.25803C26.5889 6.92283 26.1594 6.69469 25.6921 6.60244C25.2247 6.51019 24.7403 6.55797 24.3002 6.73974C23.8601 6.9215 23.484 7.22911 23.2193 7.62367C22.9547 8.01824 22.8135 8.48206 22.8135 8.95653L10.0159 21.6961C9.53927 21.6961 9.07333 21.8369 8.677 22.1006C8.28068 22.3643 7.97179 22.7391 7.78938 23.1776C7.60697 23.6161 7.55924 24.0987 7.65224 24.5642C7.74523 25.0297 7.97476 25.4574 8.3118 25.793C8.64884 26.1286 9.07827 26.3572 9.54576 26.4498C10.0133 26.5424 10.4978 26.4949 10.9382 26.3132C11.3786 26.1316 11.755 25.824 12.0198 25.4293C12.2846 25.0347 12.4259 24.5707 12.4259 24.096L25.2278 11.3564Z" fill="#22262C" stroke="#22262C" stroke-width="4.18903"/>
<path d="M8.94898 14.9012C8.62595 14.5795 8.21441 14.3605 7.7664 14.2718C7.31838 14.1831 6.85401 14.2287 6.432 14.4028C6.01 14.5769 5.6493 14.8717 5.39553 15.2499C5.14176 15.6281 5.00632 16.0727 5.00632 16.5276C5.00632 16.9825 5.14176 17.4271 5.39553 17.8054C5.6493 18.1836 6.01 18.4784 6.432 18.6525C6.85401 18.8266 7.31838 18.8721 7.7664 18.7834C8.21441 18.6947 8.62595 18.4757 8.94898 18.1541L26.289 18.1541C26.612 18.4757 27.0236 18.6947 27.4716 18.7834C27.9196 18.8721 28.384 18.8266 28.806 18.6525C29.228 18.4784 29.5887 18.1836 29.8424 17.8054C30.0962 17.4271 30.2317 16.9825 30.2317 16.5276C30.2317 16.0727 30.0962 15.6281 29.8424 15.2499C29.5887 14.8717 29.228 14.5769 28.806 14.4028C28.384 14.2287 27.9196 14.1831 27.4716 14.2718C27.0236 14.3605 26.612 14.5795 26.289 14.9012L8.94898 14.9012Z" fill="#FFB13B"/>
<path d="M12.6451 9.27456C12.6451 8.81985 12.5098 8.37534 12.2562 7.99721C12.0026 7.61907 11.6421 7.32428 11.2203 7.15008C10.7985 6.97588 10.3343 6.93009 9.88643 7.0185C9.43852 7.10691 9.02697 7.32555 8.7038 7.64679C8.38063 7.96803 8.16033 8.37745 8.07074 8.82333C7.98115 9.2692 8.02629 9.73152 8.20047 10.1518C8.37464 10.5722 8.67002 10.9317 9.04929 11.1849C9.42856 11.4381 9.8747 11.5737 10.3313 11.5745L22.596 23.7836C22.596 24.2383 22.7313 24.6828 22.9849 25.0609C23.2385 25.4391 23.599 25.7339 24.0208 25.9081C24.4426 26.0823 24.9067 26.1281 25.3547 26.0396C25.8026 25.9512 26.2141 25.7326 26.5373 25.4114C26.8605 25.0901 27.0808 24.6807 27.1704 24.2348C27.2599 23.7889 27.2148 23.3266 27.0406 22.9063C26.8664 22.486 26.5711 22.1265 26.1918 21.8733C25.8125 21.62 25.3664 21.4844 24.9098 21.4836L12.6451 9.27456Z" fill="#FFB13B"/>
<path d="M19.2502 7.89488C19.5732 7.57321 19.7931 7.1634 19.8822 6.71726C19.9713 6.27112 19.9255 5.8087 19.7507 5.38846C19.5759 4.96822 19.2799 4.60904 18.9001 4.35633C18.5202 4.10363 18.0737 3.96875 17.6169 3.96875C17.1601 3.96875 16.7136 4.10363 16.3338 4.35633C15.954 4.60904 15.658 4.96822 15.4831 5.38846C15.3083 5.8087 15.2626 6.27112 15.3516 6.71726C15.4407 7.1634 15.6607 7.57321 15.9836 7.89488V25.1622C15.6607 25.4839 15.4407 25.8937 15.3516 26.3398C15.2626 26.786 15.3083 27.2484 15.4831 27.6686C15.658 28.0889 15.954 28.448 16.3338 28.7007C16.7136 28.9534 17.1601 29.0883 17.6169 29.0883C18.0737 29.0883 18.5202 28.9534 18.9001 28.7007C19.2799 28.448 19.5759 28.0889 19.7507 27.6686C19.9255 27.2484 19.9713 26.786 19.8822 26.3398C19.7931 25.8937 19.5732 25.4839 19.2502 25.1622V7.89488Z" fill="#FFB13B"/>
<path d="M24.912 11.5735C25.3686 11.5727 25.8147 11.4371 26.194 11.1839C26.5733 10.9307 26.8687 10.5712 27.0428 10.1509C27.217 9.73054 27.2621 9.26823 27.1726 8.82235C27.083 8.37648 26.8627 7.96705 26.5395 7.64581C26.2163 7.32457 25.8048 7.10593 25.3569 7.01752C24.909 6.92912 24.4448 6.9749 24.023 7.1491C23.6012 7.3233 23.2407 7.6181 22.9871 7.99623C22.7335 8.37437 22.5982 8.81888 22.5982 9.27359L10.3335 21.4827C9.87673 21.4827 9.43019 21.6175 9.05037 21.8703C8.67055 22.123 8.37452 22.4822 8.19971 22.9025C8.0249 23.3227 7.97916 23.7852 8.06828 24.2313C8.15739 24.6775 8.37737 25.0873 8.70037 25.4089C9.02338 25.7306 9.43492 25.9496 9.88295 26.0384C10.331 26.1271 10.7954 26.0816 11.2174 25.9075C11.6394 25.7334 12.0001 25.4386 12.2539 25.0604C12.5077 24.6822 12.6432 24.2375 12.6432 23.7826L24.912 11.5735Z" fill="#FFB13B"/>
<rect x="2.87741" y="18.0254" width="29.5743" height="13.6955" rx="3.07652" fill="#22262C"/>
<path d="M8.78618 28.0802C9.13926 27.7271 9.13926 27.1546 8.78618 26.8015C8.4331 26.4484 7.86053 26.4484 7.50746 26.8015C7.15438 27.1546 7.15438 27.7271 7.50746 28.0802C7.86053 28.4333 8.4331 28.4333 8.78618 28.0802Z" fill="white"/>
<path d="M12.3027 28.3474C13.0375 28.3474 13.6387 28.1661 14.0968 27.8035C14.5548 27.4313 14.7838 26.9351 14.7838 26.2957C14.7838 25.7518 14.5644 25.3128 14.3258 25.0552C14.2113 24.9216 14.0395 24.7975 13.8105 24.683C13.591 24.559 13.4001 24.4731 13.257 24.4254L12.6367 24.225C12.15 24.0819 11.8256 23.9483 11.6634 23.8242C11.5107 23.7001 11.4343 23.557 11.4343 23.3948C11.4343 23.1181 11.692 22.889 12.15 22.889C12.7322 22.889 13.0661 23.1562 13.3047 23.662L14.593 22.9081C14.1063 21.9252 13.2475 21.4004 12.15 21.4004C11.5393 21.4004 11.0145 21.5817 10.566 21.9539C10.127 22.326 9.90752 22.8127 9.90752 23.433C9.90752 24.0437 10.127 24.5208 10.5182 24.8357C10.9286 25.1411 11.3103 25.3128 11.8733 25.4655C12.4077 25.6087 12.7703 25.7423 12.9612 25.8568C13.1616 25.9617 13.257 26.1144 13.257 26.3148C13.257 26.6774 12.9516 26.8587 12.3504 26.8587C11.6825 26.8587 11.2149 26.5534 10.9477 25.9331L9.63078 26.6965C10.0125 27.7176 10.9381 28.3474 12.3027 28.3474Z" fill="white"/>
<path d="M18.9104 28.2138L21.0861 21.534L19.4161 21.534L17.937 26.4484L16.4579 21.534H14.7879L16.9637 28.2138H18.9104Z" fill="white"/>
<path d="M24.6349 24.4922V25.8281H26.4194C26.1617 26.5152 25.5987 26.8587 24.7112 26.8587C24.0719 26.8587 23.5661 26.6774 23.1844 26.3148C22.8027 25.9427 22.6118 25.4751 22.6118 24.893C22.6118 24.3109 22.7931 23.8242 23.1653 23.452C23.5375 23.0799 24.0146 22.889 24.5776 22.889C25.3029 22.889 25.9136 23.2135 26.2094 23.6715L27.5072 22.9272C26.9347 22.0111 25.8373 21.4004 24.5872 21.4004C23.6043 21.4004 22.7741 21.7344 22.0965 22.4119C21.419 23.0894 21.085 23.9101 21.085 24.8834C21.085 25.8568 21.4285 26.6774 22.1061 27.3454C22.7931 28.0134 23.652 28.3474 24.6921 28.3474C25.6464 28.3474 26.4289 28.0516 27.0492 27.4599C27.6695 26.8587 27.9844 26.0667 27.9844 25.0647V24.4922H24.6349Z" fill="white"/>
</svg>
