<svg width="36" height="36" viewBox="0 0 36 36" fill="none" xmlns="http://www.w3.org/2000/svg">
<path d="M11.7817 32.629C14.9064 32.629 17.4424 30.2768 17.4424 27.3785V22.1281H11.7817C8.65706 22.1281 6.12109 24.4803 6.12109 27.3785C6.12109 30.2768 8.65706 32.629 11.7817 32.629Z" fill="#0ACF83"/>
<path d="M6.11719 16.8756C6.11719 13.9773 8.65316 11.6251 11.7778 11.6251L17.4385 11.6251L17.4385 22.126H11.7778C8.65316 22.126 6.11719 19.7738 6.11719 16.8756Z" fill="#463D51"/>
<path d="M6.11914 6.3746C6.11914 3.47635 8.65511 1.12415 11.7798 1.12415L17.4404 1.12415L17.4404 11.6251L11.7798 11.6251C8.65511 11.6251 6.11914 9.27286 6.11914 6.3746Z" fill="#F24E1E"/>
<path d="M17.4392 1.12512L23.0999 1.12512C26.2245 1.12512 28.7605 3.47733 28.7605 6.37558C28.7605 9.27383 26.2245 11.626 23.0999 11.626H17.4392L17.4392 1.12512Z" fill="#FF7262"/>
<path d="M28.7608 16.8766C28.7608 19.7748 26.2248 22.127 23.1001 22.127C19.9754 22.127 17.4395 19.7748 17.4395 16.8766C17.4395 13.9783 19.9754 11.6261 23.1001 11.6261C26.2248 11.6261 28.7608 13.9783 28.7608 16.8766Z" fill="#1ABCFE"/>
</svg>
