<svg width="71" height="71" viewBox="0 0 71 71" fill="none" xmlns="http://www.w3.org/2000/svg">
<g clip-path="url(#clip0_71_32159)">
<rect x="0.601562" y="0.000488281" width="70.4" height="70.4" fill="#1A3925"/>
<path d="M51.6214 39.8613L52.2434 34.9644C52.4908 33.0167 52.6145 32.0428 52.0603 31.4137C51.506 30.7847 50.5243 30.7847 48.561 30.7847H23.3735C21.4101 30.7847 20.4284 30.7847 19.8742 31.4137C19.32 32.0428 19.4437 33.0167 19.691 34.9644L20.313 39.8613C21.098 46.0413 21.4905 49.1313 23.5943 50.9849C25.6982 52.8384 28.813 52.8384 35.0427 52.8384H36.8918C43.1214 52.8384 46.2363 52.8384 48.3401 50.9849C50.444 49.1313 50.8364 46.0413 51.6214 39.8613Z" fill="#B9EB8E" stroke="#B9EB8E" stroke-width="2.784" stroke-linecap="round"/>
<path d="M49.0389 30.7856C49.0389 23.6806 43.1862 17.9209 35.9667 17.9209C28.7471 17.9209 22.8945 23.6806 22.8945 30.7856" stroke="#B9EB8E" stroke-width="3.84" stroke-linecap="round"/>
<path d="M17.2383 30.145H54.5873" stroke="#B9EB8E" stroke-width="3.84" stroke-linecap="round"/>
</g>
<defs>
<clipPath id="clip0_71_32159">
<rect x="0.601562" width="70.4" height="70.4" rx="17.6" fill="white"/>
</clipPath>
</defs>
</svg>
