<svg width="71" height="71" viewBox="0 0 71 71" fill="none" xmlns="http://www.w3.org/2000/svg">
<rect x="0.839219" y="0.64" width="69.12" height="69.12" rx="16.96" fill="white"/>
<path d="M24.6676 32.591C24.2622 32.1873 23.7456 31.9124 23.1832 31.801C22.6209 31.6897 22.038 31.7469 21.5083 31.9654C20.9786 32.1839 20.5258 32.554 20.2073 33.0287C19.8888 33.5034 19.7188 34.0616 19.7188 34.6325C19.7188 35.2035 19.8888 35.7616 20.2073 36.2364C20.5258 36.7111 20.9786 37.0812 21.5083 37.2997C22.038 37.5182 22.6209 37.5754 23.1832 37.4641C23.7456 37.3527 24.2622 37.0778 24.6676 36.6741H46.4331C46.8385 37.0778 47.3551 37.3527 47.9175 37.4641C48.4798 37.5754 49.0627 37.5182 49.5924 37.2997C50.1221 37.0812 50.5749 36.7111 50.8934 36.2364C51.2119 35.7616 51.382 35.2035 51.382 34.6325C51.382 34.0616 51.2119 33.5034 50.8934 33.0287C50.5749 32.554 50.1221 32.1839 49.5924 31.9654C49.0627 31.7469 48.4798 31.6897 47.9175 31.801C47.3551 31.9124 46.8385 32.1873 46.4331 32.591H24.6676Z" fill="#22262C" stroke="#22262C" stroke-width="5.03917"/>
<path d="M29.306 25.5246C29.306 24.9539 29.1361 24.3959 28.8178 23.9213C28.4995 23.4466 28.047 23.0766 27.5175 22.8579C26.9881 22.6393 26.4055 22.5818 25.8432 22.6928C25.281 22.8038 24.7644 23.0782 24.3588 23.4814C23.9531 23.8846 23.6766 24.3986 23.5642 24.9582C23.4517 25.5179 23.5084 26.0982 23.727 26.6258C23.9456 27.1534 24.3164 27.6047 24.7925 27.9225C25.2685 28.2404 25.8285 28.4105 26.4017 28.4116L41.7964 43.7366C41.7964 44.3073 41.9663 44.8653 42.2846 45.3399C42.603 45.8146 43.0554 46.1846 43.5849 46.4032C44.1143 46.6219 44.697 46.6794 45.2592 46.5684C45.8214 46.4574 46.338 46.183 46.7436 45.7798C47.1493 45.3765 47.4258 44.8626 47.5383 44.303C47.6507 43.7433 47.5941 43.163 47.3754 42.6354C47.1568 42.1078 46.786 41.6565 46.31 41.3387C45.8339 41.0208 45.2739 40.8507 44.7007 40.8496L29.306 25.5246Z" fill="#22262C" stroke="#22262C" stroke-width="5.03917"/>
<path d="M37.6016 23.7939C38.007 23.3901 38.283 22.8757 38.3949 22.3157C38.5067 21.7557 38.4492 21.1753 38.2298 20.6478C38.0104 20.1203 37.6388 19.6694 37.162 19.3522C36.6853 19.035 36.1248 18.8657 35.5514 18.8657C34.9781 18.8657 34.4176 19.035 33.9408 19.3522C33.4641 19.6694 33.0925 20.1203 32.8731 20.6478C32.6536 21.1753 32.5962 21.7557 32.708 22.3157C32.8198 22.8757 33.0959 23.3901 33.5013 23.7939V45.468C33.0959 45.8718 32.8198 46.3862 32.708 46.9462C32.5962 47.5062 32.6536 48.0866 32.8731 48.6141C33.0925 49.1416 33.4641 49.5925 33.9408 49.9097C34.4176 50.2269 34.9781 50.3962 35.5514 50.3962C36.1248 50.3962 36.6853 50.2269 37.162 49.9097C37.6388 49.5925 38.0104 49.1416 38.2298 48.6141C38.4492 48.0866 38.5067 47.5062 38.3949 46.9462C38.283 46.3862 38.007 45.8718 37.6016 45.468V23.7939Z" fill="#22262C" stroke="#22262C" stroke-width="5.03917"/>
<path d="M44.7021 28.413C45.2752 28.412 45.8352 28.2418 46.3113 27.924C46.7874 27.6061 47.1581 27.1549 47.3767 26.6273C47.5954 26.0997 47.652 25.5194 47.5396 24.9597C47.4271 24.4 47.1506 23.8861 46.745 23.4829C46.3393 23.0797 45.8227 22.8052 45.2605 22.6943C44.6983 22.5833 44.1156 22.6408 43.5862 22.8594C43.0568 23.0781 42.6043 23.4481 42.286 23.9227C41.9676 24.3974 41.7977 24.9553 41.7977 25.5261L26.403 40.8511C25.8296 40.8511 25.2691 41.0204 24.7924 41.3376C24.3156 41.6549 23.944 42.1057 23.7246 42.6333C23.5052 43.1608 23.4478 43.7412 23.5596 44.3013C23.6715 44.8613 23.9476 45.3757 24.353 45.7794C24.7585 46.1832 25.275 46.4581 25.8374 46.5695C26.3998 46.6809 26.9827 46.6237 27.5124 46.4052C28.0422 46.1867 28.495 45.8167 28.8135 45.3419C29.1321 44.8672 29.3021 44.309 29.3021 43.738L44.7021 28.413Z" fill="#22262C" stroke="#22262C" stroke-width="5.03917"/>
<path d="M25.1139 32.6744C24.7253 32.2876 24.2303 32.0241 23.6913 31.9174C23.1524 31.8107 22.5938 31.8655 22.0861 32.0749C21.5785 32.2843 21.1446 32.6389 20.8393 33.0939C20.534 33.5489 20.3711 34.0838 20.3711 34.631C20.3711 35.1782 20.534 35.7131 20.8393 36.168C21.1446 36.623 21.5785 36.9776 22.0861 37.187C22.5938 37.3965 23.1524 37.4513 23.6913 37.3446C24.2303 37.2379 24.7253 36.9744 25.1139 36.5875H45.973C46.3615 36.9744 46.8566 37.2379 47.3955 37.3446C47.9345 37.4513 48.4931 37.3965 49.0007 37.187C49.5084 36.9776 49.9423 36.623 50.2476 36.168C50.5528 35.7131 50.7158 35.1782 50.7158 34.631C50.7158 34.0838 50.5528 33.5489 50.2476 33.0939C49.9423 32.6389 49.5084 32.2843 49.0007 32.0749C48.4931 31.8655 47.9345 31.8107 47.3955 31.9174C46.8566 32.0241 46.3615 32.2876 45.973 32.6744H25.1139Z" fill="#FFB13B"/>
<path d="M29.5606 25.9044C29.5606 25.3574 29.3978 24.8227 29.0928 24.3678C28.7877 23.9129 28.3541 23.5583 27.8467 23.3488C27.3393 23.1392 26.7809 23.0841 26.2421 23.1905C25.7033 23.2968 25.2082 23.5599 24.8194 23.9463C24.4307 24.3327 24.1657 24.8252 24.0579 25.3616C23.9501 25.898 24.0044 26.4541 24.214 26.9597C24.4235 27.4654 24.7788 27.8978 25.2351 28.2024C25.6913 28.507 26.228 28.6701 26.7773 28.6711L41.5309 43.3579C41.5309 43.9049 41.6938 44.4397 41.9988 44.8945C42.3039 45.3494 42.7375 45.704 43.2449 45.9136C43.7523 46.1231 44.3107 46.1782 44.8495 46.0719C45.3883 45.9655 45.8834 45.7025 46.2721 45.3161C46.6609 44.9296 46.9259 44.4371 47.0337 43.9008C47.1414 43.3644 47.0871 42.8083 46.8776 42.3026C46.6681 41.797 46.3128 41.3645 45.8565 41.0599C45.4003 40.7553 44.8636 40.5922 44.3143 40.5912L29.5606 25.9044Z" fill="#FFB13B"/>
<path d="M37.5049 24.2464C37.8934 23.8594 38.1579 23.3664 38.2651 22.8297C38.3723 22.2931 38.3172 21.7368 38.1069 21.2313C37.8966 20.7257 37.5405 20.2937 37.0836 19.9897C36.6267 19.6857 36.0896 19.5234 35.5401 19.5234C34.9906 19.5234 34.4534 19.6857 33.9966 19.9897C33.5397 20.2937 33.1836 20.7257 32.9733 21.2313C32.763 21.7368 32.7079 22.2931 32.8151 22.8297C32.9222 23.3664 33.1868 23.8594 33.5753 24.2464V45.018C33.1868 45.4049 32.9222 45.8979 32.8151 46.4346C32.7079 46.9712 32.763 47.5275 32.9733 48.033C33.1836 48.5386 33.5397 48.9706 33.9966 49.2746C34.4534 49.5786 34.9906 49.7409 35.5401 49.7409C36.0896 49.7409 36.6267 49.5786 37.0836 49.2746C37.5405 48.9706 37.8966 48.5386 38.1069 48.033C38.3172 47.5275 38.3723 46.9712 38.2651 46.4346C38.1579 45.8979 37.8934 45.4049 37.5049 45.018V24.2464Z" fill="#FFB13B"/>
<path d="M44.3154 28.6711C44.8647 28.6701 45.4014 28.507 45.8576 28.2024C46.3139 27.8978 46.6692 27.4654 46.8787 26.9597C47.0882 26.4541 47.1425 25.898 47.0348 25.3616C46.927 24.8252 46.662 24.3327 46.2732 23.9463C45.8845 23.5599 45.3894 23.2968 44.8506 23.1905C44.3118 23.0841 43.7534 23.1392 43.246 23.3488C42.7386 23.5583 42.305 23.9129 41.9999 24.3678C41.6949 24.8227 41.532 25.3574 41.532 25.9044L26.7784 40.5912C26.2289 40.5912 25.6917 40.7535 25.2348 41.0575C24.7779 41.3615 24.4218 41.7936 24.2115 42.2992C24.0012 42.8047 23.9462 43.361 24.0534 43.8977C24.1606 44.4344 24.4252 44.9274 24.8138 45.3143C25.2023 45.7013 25.6974 45.9648 26.2363 46.0715C26.7753 46.1783 27.3339 46.1235 27.8416 45.9141C28.3493 45.7047 28.7832 45.35 29.0885 44.8951C29.3938 44.4401 29.5567 43.9052 29.5567 43.358L44.3154 28.6711Z" fill="#FFB13B"/>
<rect x="17.8125" y="36.4351" width="35.5762" height="16.4749" rx="3.70088" fill="#22262C"/>
<path d="M24.9232 48.53C25.3479 48.1053 25.3479 47.4166 24.9232 46.9918C24.4985 46.5671 23.8097 46.5671 23.385 46.9918C22.9602 47.4166 22.9602 48.1053 23.385 48.53C23.8097 48.9548 24.4985 48.9548 24.9232 48.53Z" fill="white"/>
<path d="M29.1534 48.8515C30.0373 48.8515 30.7605 48.6334 31.3115 48.1972C31.8625 47.7495 32.138 47.1525 32.138 46.3834C32.138 45.7291 31.874 45.2011 31.587 44.8912C31.4493 44.7304 31.2426 44.5812 30.9671 44.4435C30.7031 44.2942 30.4735 44.1909 30.3013 44.1335L29.5552 43.8925C28.9697 43.7203 28.5794 43.5596 28.3843 43.4103C28.2006 43.2611 28.1088 43.0889 28.1088 42.8938C28.1088 42.5609 28.4187 42.2854 28.9697 42.2854C29.67 42.2854 30.0718 42.6068 30.3587 43.2152L31.9084 42.3083C31.323 41.126 30.2899 40.4946 28.9697 40.4946C28.2351 40.4946 27.6037 40.7127 27.0642 41.1604C26.5361 41.6081 26.2721 42.1935 26.2721 42.9397C26.2721 43.6744 26.5361 44.2483 27.0068 44.6271C27.5004 44.9945 27.9596 45.2011 28.6368 45.3848C29.2797 45.5569 29.7159 45.7176 29.9455 45.8554C30.1865 45.9817 30.3013 46.1653 30.3013 46.4064C30.3013 46.8426 29.934 47.0607 29.2108 47.0607C28.4073 47.0607 27.8448 46.6934 27.5233 45.9472L25.9392 46.8656C26.3984 48.0938 27.5119 48.8515 29.1534 48.8515Z" fill="white"/>
<path d="M37.102 48.6908L39.7193 40.6553H37.7104L35.9311 46.5671L34.1518 40.6553H32.143L34.7603 48.6908H37.102Z" fill="white"/>
<path d="M43.9883 44.2139V45.821H46.1349C45.825 46.6475 45.1477 47.0607 44.0801 47.0607C43.311 47.0607 42.7026 46.8426 42.2434 46.4064C41.7843 45.9587 41.5547 45.3962 41.5547 44.696C41.5547 43.9958 41.7728 43.4103 42.2205 42.9627C42.6682 42.515 43.2421 42.2854 43.9194 42.2854C44.7918 42.2854 45.5265 42.6757 45.8824 43.2267L47.4436 42.3313C46.7548 41.2293 45.4347 40.4946 43.9309 40.4946C42.7485 40.4946 41.7498 40.8964 40.9348 41.7114C40.1198 42.5264 39.718 43.5136 39.718 44.6845C39.718 45.8554 40.1312 46.8426 40.9463 47.6462C41.7728 48.4497 42.8059 48.8515 44.0572 48.8515C45.2051 48.8515 46.1464 48.4956 46.8926 47.7839C47.6387 47.0607 48.0175 46.1079 48.0175 44.9026V44.2139H43.9883Z" fill="white"/>
<rect x="0.839219" y="0.64" width="69.12" height="69.12" rx="16.96" stroke="#FFB13B" stroke-width="1.28"/>
</svg>
