<svg width="71" height="71" viewBox="0 0 71 71" fill="none" xmlns="http://www.w3.org/2000/svg">
<rect x="0.64" y="0.64" width="69.12" height="69.12" rx="16.96" fill="white"/>
<path d="M28.1304 51.8213C31.6804 51.8213 34.5615 49.149 34.5615 45.8562V39.8911H28.1304C24.5804 39.8911 21.6992 42.5635 21.6992 45.8562C21.6992 49.149 24.5804 51.8213 28.1304 51.8213Z" fill="#0ACF83"/>
<path d="M21.6992 33.9251C21.6992 30.6323 24.5804 27.96 28.1304 27.96H34.5615V39.8902H28.1304C24.5804 39.8902 21.6992 37.2178 21.6992 33.9251Z" fill="#A259FF"/>
<path d="M21.6992 21.9944C21.6992 18.7017 24.5804 16.0293 28.1304 16.0293H34.5615V27.9595H28.1304C24.5804 27.9595 21.6992 25.2872 21.6992 21.9944Z" fill="#F24E1E"/>
<path d="M34.5625 16.0293H40.9936C44.5436 16.0293 47.4248 18.7017 47.4248 21.9944C47.4248 25.2872 44.5436 27.9595 40.9936 27.9595H34.5625V16.0293Z" fill="#FF7262"/>
<path d="M47.4248 33.9251C47.4248 37.2178 44.5436 39.8902 40.9936 39.8902C37.4437 39.8902 34.5625 37.2178 34.5625 33.9251C34.5625 30.6323 37.4437 27.96 40.9936 27.96C44.5436 27.96 47.4248 30.6323 47.4248 33.9251Z" fill="#1ABCFE"/>
<rect x="0.64" y="0.64" width="69.12" height="69.12" rx="16.96" stroke="#A259FF" stroke-width="1.28"/>
</svg>
