<svg width="626" height="320" viewBox="0 0 626 320" fill="none" xmlns="http://www.w3.org/2000/svg">
<g clip-path="url(#clip0_46_37795)">
<path d="M463.254 244.475C503.767 176.487 476.221 103.484 401.728 81.4181C327.236 59.3523 234.005 96.5799 193.492 164.568" stroke="#8EE46A" stroke-width="42.0427" stroke-linecap="round"/>
<path d="M437.145 340.734L473.22 293.504C486.601 275.987 493.291 267.228 490.984 259.616C488.678 252.005 478.412 248.964 457.881 242.882L199.128 166.236C178.596 160.154 168.33 157.114 159.006 161.28C149.681 165.446 145.491 174.945 137.112 193.944L114.521 245.168C87.7255 305.924 74.3279 336.302 85.9964 360.384C97.6649 384.465 130.493 394.19 196.15 413.638L209.354 417.549C275.011 436.998 307.839 446.722 340.401 435.742C372.962 424.761 394.357 396.752 437.145 340.734Z" fill="#1A3925" stroke="#1A3925" stroke-width="30.481" stroke-linecap="round"/>
<path d="M139.352 141.325L524.725 255.478" stroke="#1A3925" stroke-width="42.0427" stroke-linecap="round"/>
</g>
<defs>
<clipPath id="clip0_46_37795">
<rect width="444.186" height="389.902" fill="white" transform="matrix(0.95882 0.284015 -0.511893 0.859049 199.59 0)"/>
</clipPath>
</defs>
</svg>
